# xmcd
# 
# Track frame offsets:
#     150
#     15215
#     30605
#     45795
#     56275
#     71526
#     81801
#     98355
#     112489
#     123937
#     142134
#     156185
#     167502
# 
# Disc length: 2411
# 
# Revision: 1
# Processed by: cddbd v1.5.2PL0 Copyright (c) Steve Scherf et al.
# Submitted via: BonkEnc v1.0.15
# 
DISCID=9809690d
DTITLE=Браво - Московский бит
DYEAR=1998
DGENRE=Rock and Roll
TTITLE0=Московский бит
TTITLE1=Стильный оранжевый галстук
TTITLE2=Лунатик
TTITLE3=Космический рок-н-ролл
TTITLE4=Пусть не кончается дождь
TTITLE5=Пилот 12-45
TTITLE6=Как жаль
TTITLE7=Рио
TTITLE8=Заполярный твист
TTITLE9=Вот и все
TTITLE10=По волнам
TTITLE11=Север и Юг
TTITLE12=Дорога в облака
EXTD=
EXTT0=
EXTT1=
EXTT2=
EXTT3=
EXTT4=
EXTT5=
EXTT6=
EXTT7=
EXTT8=
EXTT9=
EXTT10=
EXTT11=
EXTT12=
PLAYORDER=
